{
	"asset":{
		"generator":"Khronos glTF Blender I/O v3.5.30",
		"version":"2.0"
	},
	"scene":0,
	"scenes":[
		{
			"name":"Scene",
			"nodes":[
				30,
				33
			]
		}
	],
	"nodes":[
		{
			"name":"Jaw",
			"translation":[
				0,
				2.4232020378112793,
				0
			]
		},
		{
			"name":"Bone.010",
			"rotation":[
				-0.7071067690849304,
				-0.7071067690849304,
				9.272588386011194e-08,
				1.3767875373105198e-07
			],
			"scale":[
				0.9999999403953552,
				0.9999997019767761,
				1
			],
			"translation":[
				1.4279066817834973e-10,
				0.6600837111473083,
				-3.981673657449392e-09
			]
		},
		{
			"name":"Bone.011",
			"rotation":[
				0.7071067690849304,
				-0.7071067690849304,
				-9.272589096553929e-08,
				1.376787679419067e-07
			],
			"translation":[
				1.4279066817834973e-10,
				0.6600837111473083,
				-3.981673657449392e-09
			]
		},
		{
			"children":[
				1,
				2
			],
			"name":"Bone.006",
			"rotation":[
				0.7071067690849304,
				-1.1520231879558196e-07,
				-1.1520231879558196e-07,
				0.7071067690849304
			],
			"translation":[
				0,
				1.1445612907409668,
				0.8565654754638672
			]
		},
		{
			"name":"Bone.008",
			"rotation":[
				0.7071067690849304,
				-0.7071067690849304,
				-9.272584833297515e-08,
				1.376787679419067e-07
			],
			"translation":[
				-4.2814463085960597e-10,
				0.6600837111473083,
				-3.981673657449392e-09
			]
		},
		{
			"name":"Bone.009",
			"rotation":[
				-0.7071067690849304,
				-0.7071067690849304,
				9.272586964925722e-08,
				1.376787679419067e-07
			],
			"translation":[
				-4.2814463085960597e-10,
				0.6600837111473083,
				-3.981673657449392e-09
			]
		},
		{
			"children":[
				4,
				5
			],
			"name":"Bone.007",
			"rotation":[
				0.7071067690849304,
				-1.1520231879558196e-07,
				-1.1520231879558196e-07,
				0.7071067690849304
			],
			"translation":[
				0,
				0.7833209037780762,
				0.8526790142059326
			]
		},
		{
			"children":[
				0,
				3,
				6
			],
			"name":"Head",
			"translation":[
				0,
				0.6960110664367676,
				0
			]
		},
		{
			"children":[
				7
			],
			"name":"Chest",
			"translation":[
				0,
				2.402778148651123,
				0
			]
		},
		{
			"name":"Hand.L",
			"rotation":[
				0,
				0,
				9.608570229480964e-16,
				1
			],
			"translation":[
				0,
				3.137990951538086,
				5.234124245134808e-11
			]
		},
		{
			"children":[
				9
			],
			"name":"LowerArm.L",
			"rotation":[
				0.09507375955581665,
				-2.2250484121855152e-08,
				2.1250587955989886e-09,
				0.9954702258110046
			],
			"translation":[
				-7.403855306620244e-12,
				1.7942779064178467,
				-3.5772376349996193e-07
			]
		},
		{
			"children":[
				10
			],
			"name":"UpperArm.L",
			"rotation":[
				0.07577557116746902,
				-7.478622876533336e-08,
				9.070741491257195e-09,
				0.9971249103546143
			],
			"scale":[
				1,
				1.0000001192092896,
				1.0000001192092896
			],
			"translation":[
				3.226716671633767e-10,
				2.5169572830200195,
				-2.3894014589131984e-07
			]
		},
		{
			"children":[
				11
			],
			"name":"Shoulder.L",
			"rotation":[
				-0.5778182148933411,
				-0.4075855016708374,
				-0.5778183937072754,
				0.40758562088012695
			],
			"translation":[
				0,
				2.402778148651123,
				0
			]
		},
		{
			"name":"Hand.P",
			"rotation":[
				-2.6890041946794252e-17,
				3.7839328115296667e-08,
				-3.1425195778922443e-09,
				1
			],
			"translation":[
				9.671197176430724e-11,
				3.1871142387390137,
				-4.5914383406397974e-11
			]
		},
		{
			"children":[
				13
			],
			"name":"LowerArm.P",
			"rotation":[
				0.08639665693044662,
				-0.7018088102340698,
				0.08639665693044662,
				0.7018088698387146
			],
			"scale":[
				1,
				1.0000001192092896,
				1
			],
			"translation":[
				1.1925708065518847e-07,
				1.662901759147644,
				-1.5612933168540621e-10
			]
		},
		{
			"children":[
				14
			],
			"name":"UpperArm.P",
			"rotation":[
				0.011876746080815792,
				0.7070070505142212,
				0.011876745149493217,
				0.7070070505142212
			],
			"translation":[
				-1.403854810178018e-10,
				2.619223117828369,
				5.961836109236174e-07
			]
		},
		{
			"children":[
				15
			],
			"name":"Shoulder.P",
			"rotation":[
				-0.5645758509635925,
				0.4257394075393677,
				0.5645759105682373,
				0.4257393777370453
			],
			"scale":[
				1.000000238418579,
				1.000000238418579,
				1.0000001192092896
			],
			"translation":[
				0,
				2.402778148651123,
				0
			]
		},
		{
			"children":[
				8,
				12,
				16
			],
			"name":"Spine",
			"translation":[
				0,
				3.5316905975341797,
				0
			]
		},
		{
			"children":[
				17
			],
			"name":"Hips",
			"translation":[
				0,
				1.470892071723938,
				0
			]
		},
		{
			"name":"foot.L",
			"rotation":[
				-1.7156222043013258e-07,
				0.7071067094802856,
				-1.004859071656889e-14,
				0.7071068286895752
			],
			"translation":[
				-7.194245199571014e-12,
				1.2725377082824707,
				8.639660364906376e-08
			]
		},
		{
			"children":[
				19
			],
			"name":"UpperLeg.L",
			"rotation":[
				-0.7071067690849304,
				1.0048591563601838e-14,
				0.7071067690849304,
				1.7156222043013258e-07
			],
			"scale":[
				1,
				0.9999999403953552,
				1
			],
			"translation":[
				1.2736202478408813,
				-0.5712007284164429,
				1.5972182154655457e-07
			]
		},
		{
			"name":"foot.P",
			"rotation":[
				-1.7156222043013258e-07,
				0.7071067094802856,
				-1.004859071656889e-14,
				0.7071068286895752
			],
			"translation":[
				2.8975932764296886e-11,
				1.2725378274917603,
				7.557157744031429e-08
			]
		},
		{
			"children":[
				21
			],
			"name":"UpperLeg.P",
			"rotation":[
				-0.7071067690849304,
				1.0048591563601838e-14,
				0.7071067690849304,
				1.7156222043013258e-07
			],
			"scale":[
				1,
				0.9999999403953552,
				1
			],
			"translation":[
				-1.5566469430923462,
				-0.6158169507980347,
				1.4901161193847656e-07
			]
		},
		{
			"children":[
				18,
				20,
				22
			],
			"name":"Bone"
		},
		{
			"mesh":0,
			"name":"Body",
			"skin":0
		},
		{
			"mesh":1,
			"name":"crimson",
			"skin":0
		},
		{
			"mesh":2,
			"name":"helmet",
			"skin":0
		},
		{
			"mesh":3,
			"name":"throat",
			"skin":0
		},
		{
			"mesh":4,
			"name":"tines",
			"skin":0
		},
		{
			"mesh":5,
			"name":"tongue",
			"skin":0
		},
		{
			"children":[
				24,
				25,
				26,
				27,
				28,
				29,
				23
			],
			"name":"bones",
			"translation":[
				0.012219667434692383,
				-0.2573058307170868,
				-0.0026828646659851074
			]
		},
		{
			"name":"Bone"
		},
		{
			"mesh":6,
			"name":"sword",
			"skin":1
		},
		{
			"children":[
				32,
				31
			],
			"name":"weapon",
			"translation":[
				7.542044162750244,
				5.604094982147217,
				-0.10827924311161041
			]
		}
	],
	"materials":[
		{
			"doubleSided":true,
			"name":"body",
			"pbrMetallicRoughness":{}
		},
		{
			"doubleSided":true,
			"name":"helmet",
			"pbrMetallicRoughness":{}
		},
		{
			"doubleSided":true,
			"name":"throatandtongue",
			"pbrMetallicRoughness":{}
		},
		{
			"doubleSided":true,
			"name":"tines",
			"pbrMetallicRoughness":{}
		},
		{
			"doubleSided":true,
			"name":"sword",
			"pbrMetallicRoughness":{}
		}
	],
	"meshes":[
		{
			"name":"Cube.002",
			"primitives":[
				{
					"attributes":{
						"POSITION":0,
						"TEXCOORD_0":1,
						"NORMAL":2,
						"JOINTS_0":3,
						"WEIGHTS_0":4
					},
					"indices":5,
					"material":0
				}
			]
		},
		{
			"name":"Cube.000",
			"primitives":[
				{
					"attributes":{
						"POSITION":7,
						"TEXCOORD_0":8,
						"NORMAL":9,
						"JOINTS_0":10,
						"WEIGHTS_0":11
					},
					"indices":12,
					"material":1
				}
			]
		},
		{
			"name":"Cube.003",
			"primitives":[
				{
					"attributes":{
						"POSITION":13,
						"TEXCOORD_0":14,
						"NORMAL":15,
						"JOINTS_0":16,
						"WEIGHTS_0":17
					},
					"indices":18,
					"material":1
				}
			]
		},
		{
			"name":"Cube.004",
			"primitives":[
				{
					"attributes":{
						"POSITION":19,
						"TEXCOORD_0":20,
						"NORMAL":21,
						"JOINTS_0":22,
						"WEIGHTS_0":23
					},
					"indices":24,
					"material":2
				}
			]
		},
		{
			"name":"Cube.001",
			"primitives":[
				{
					"attributes":{
						"POSITION":25,
						"TEXCOORD_0":26,
						"NORMAL":27,
						"JOINTS_0":28,
						"WEIGHTS_0":29
					},
					"indices":30,
					"material":3
				}
			]
		},
		{
			"name":"Cube.006",
			"primitives":[
				{
					"attributes":{
						"POSITION":31,
						"TEXCOORD_0":32,
						"NORMAL":33,
						"JOINTS_0":34,
						"WEIGHTS_0":35
					},
					"indices":36,
					"material":2
				}
			]
		},
		{
			"name":"Cube.007",
			"primitives":[
				{
					"attributes":{
						"POSITION":37,
						"TEXCOORD_0":38,
						"NORMAL":39,
						"JOINTS_0":40,
						"WEIGHTS_0":41
					},
					"indices":42,
					"material":4
				}
			]
		}
	],
	"skins":[
		{
			"inverseBindMatrices":6,
			"joints":[
				23,
				18,
				17,
				8,
				7,
				0,
				3,
				1,
				2,
				6,
				4,
				5,
				12,
				11,
				10,
				9,
				16,
				15,
				14,
				13,
				20,
				19,
				22,
				21
			],
			"name":"bones"
		},
		{
			"inverseBindMatrices":43,
			"joints":[
				31
			],
			"name":"weapon"
		}
	],
	"accessors":[
		{
			"bufferView":0,
			"componentType":5126,
			"count":2735,
			"max":[
				8.146533012390137,
				11.305792808532715,
				2.227370262145996
			],
			"min":[
				-8.14653205871582,
				-3.5337586402893066,
				-1.718563437461853
			],
			"type":"VEC3"
		},
		{
			"bufferView":1,
			"componentType":5126,
			"count":2735,
			"type":"VEC2"
		},
		{
			"bufferView":2,
			"componentType":5126,
			"count":2735,
			"type":"VEC3"
		},
		{
			"bufferView":3,
			"componentType":5121,
			"count":2735,
			"type":"VEC4"
		},
		{
			"bufferView":4,
			"componentType":5126,
			"count":2735,
			"type":"VEC4"
		},
		{
			"bufferView":5,
			"componentType":5123,
			"count":4188,
			"type":"SCALAR"
		},
		{
			"bufferView":6,
			"componentType":5126,
			"count":24,
			"type":"MAT4"
		},
		{
			"bufferView":7,
			"componentType":5126,
			"count":440,
			"max":[
				2.1926040649414062,
				1.6651291847229004,
				1.4241204261779785
			],
			"min":[
				-1.906433343887329,
				0.5580353736877441,
				-1.4766079187393188
			],
			"type":"VEC3"
		},
		{
			"bufferView":8,
			"componentType":5126,
			"count":440,
			"type":"VEC2"
		},
		{
			"bufferView":9,
			"componentType":5126,
			"count":440,
			"type":"VEC3"
		},
		{
			"bufferView":10,
			"componentType":5121,
			"count":440,
			"type":"VEC4"
		},
		{
			"bufferView":11,
			"componentType":5126,
			"count":440,
			"type":"VEC4"
		},
		{
			"bufferView":12,
			"componentType":5123,
			"count":660,
			"type":"SCALAR"
		},
		{
			"bufferView":13,
			"componentType":5126,
			"count":1654,
			"max":[
				2.2059619426727295,
				12.20206356048584,
				2.849918842315674
			],
			"min":[
				-2.16046404838562,
				7.611846446990967,
				-2.4793741703033447
			],
			"type":"VEC3"
		},
		{
			"bufferView":14,
			"componentType":5126,
			"count":1654,
			"type":"VEC2"
		},
		{
			"bufferView":15,
			"componentType":5126,
			"count":1654,
			"type":"VEC3"
		},
		{
			"bufferView":16,
			"componentType":5121,
			"count":1654,
			"type":"VEC4"
		},
		{
			"bufferView":17,
			"componentType":5126,
			"count":1654,
			"type":"VEC4"
		},
		{
			"bufferView":18,
			"componentType":5123,
			"count":2484,
			"type":"SCALAR"
		},
		{
			"bufferView":19,
			"componentType":5126,
			"count":176,
			"max":[
				0.8652619123458862,
				9.170790672302246,
				1.4168837070465088
			],
			"min":[
				-0.8652619123458862,
				8.598838806152344,
				-0.14038196206092834
			],
			"type":"VEC3"
		},
		{
			"bufferView":20,
			"componentType":5126,
			"count":176,
			"type":"VEC2"
		},
		{
			"bufferView":21,
			"componentType":5126,
			"count":176,
			"type":"VEC3"
		},
		{
			"bufferView":22,
			"componentType":5121,
			"count":176,
			"type":"VEC4"
		},
		{
			"bufferView":23,
			"componentType":5126,
			"count":176,
			"type":"VEC4"
		},
		{
			"bufferView":24,
			"componentType":5123,
			"count":264,
			"type":"SCALAR"
		},
		{
			"bufferView":25,
			"componentType":5126,
			"count":240,
			"max":[
				0.7032755613327026,
				9.124547004699707,
				1.6300958395004272
			],
			"min":[
				-0.6916094422340393,
				8.636170387268066,
				1.1362074613571167
			],
			"type":"VEC3"
		},
		{
			"bufferView":26,
			"componentType":5126,
			"count":240,
			"type":"VEC2"
		},
		{
			"bufferView":27,
			"componentType":5126,
			"count":240,
			"type":"VEC3"
		},
		{
			"bufferView":28,
			"componentType":5121,
			"count":240,
			"type":"VEC4"
		},
		{
			"bufferView":29,
			"componentType":5126,
			"count":240,
			"type":"VEC4"
		},
		{
			"bufferView":30,
			"componentType":5123,
			"count":360,
			"type":"SCALAR"
		},
		{
			"bufferView":31,
			"componentType":5126,
			"count":72,
			"max":[
				0.35526350140571594,
				8.778716087341309,
				1.1784980297088623
			],
			"min":[
				-0.19597938656806946,
				8.649499893188477,
				-0.006859708111733198
			],
			"type":"VEC3"
		},
		{
			"bufferView":32,
			"componentType":5126,
			"count":72,
			"type":"VEC2"
		},
		{
			"bufferView":33,
			"componentType":5126,
			"count":72,
			"type":"VEC3"
		},
		{
			"bufferView":34,
			"componentType":5121,
			"count":72,
			"type":"VEC4"
		},
		{
			"bufferView":35,
			"componentType":5126,
			"count":72,
			"type":"VEC4"
		},
		{
			"bufferView":36,
			"componentType":5123,
			"count":108,
			"type":"SCALAR"
		},
		{
			"bufferView":37,
			"componentType":5126,
			"count":546,
			"max":[
				7.819129943847656,
				12.254939079284668,
				0.7974759936332703
			],
			"min":[
				7.270960807800293,
				4.770941734313965,
				-0.9819775223731995
			],
			"type":"VEC3"
		},
		{
			"bufferView":38,
			"componentType":5126,
			"count":546,
			"type":"VEC2"
		},
		{
			"bufferView":39,
			"componentType":5126,
			"count":546,
			"type":"VEC3"
		},
		{
			"bufferView":40,
			"componentType":5121,
			"count":546,
			"type":"VEC4"
		},
		{
			"bufferView":41,
			"componentType":5126,
			"count":546,
			"type":"VEC4"
		},
		{
			"bufferView":42,
			"componentType":5123,
			"count":960,
			"type":"SCALAR"
		},
		{
			"bufferView":43,
			"componentType":5126,
			"count":1,
			"type":"MAT4"
		}
	],
	"bufferViews":[
		{
			"buffer":0,
			"byteLength":32820,
			"byteOffset":0,
			"target":34962
		},
		{
			"buffer":0,
			"byteLength":21880,
			"byteOffset":32820,
			"target":34962
		},
		{
			"buffer":0,
			"byteLength":32820,
			"byteOffset":54700,
			"target":34962
		},
		{
			"buffer":0,
			"byteLength":10940,
			"byteOffset":87520,
			"target":34962
		},
		{
			"buffer":0,
			"byteLength":43760,
			"byteOffset":98460,
			"target":34962
		},
		{
			"buffer":0,
			"byteLength":8376,
			"byteOffset":142220,
			"target":34963
		},
		{
			"buffer":0,
			"byteLength":1536,
			"byteOffset":150596
		},
		{
			"buffer":0,
			"byteLength":5280,
			"byteOffset":152132,
			"target":34962
		},
		{
			"buffer":0,
			"byteLength":3520,
			"byteOffset":157412,
			"target":34962
		},
		{
			"buffer":0,
			"byteLength":5280,
			"byteOffset":160932,
			"target":34962
		},
		{
			"buffer":0,
			"byteLength":1760,
			"byteOffset":166212,
			"target":34962
		},
		{
			"buffer":0,
			"byteLength":7040,
			"byteOffset":167972,
			"target":34962
		},
		{
			"buffer":0,
			"byteLength":1320,
			"byteOffset":175012,
			"target":34963
		},
		{
			"buffer":0,
			"byteLength":19848,
			"byteOffset":176332,
			"target":34962
		},
		{
			"buffer":0,
			"byteLength":13232,
			"byteOffset":196180,
			"target":34962
		},
		{
			"buffer":0,
			"byteLength":19848,
			"byteOffset":209412,
			"target":34962
		},
		{
			"buffer":0,
			"byteLength":6616,
			"byteOffset":229260,
			"target":34962
		},
		{
			"buffer":0,
			"byteLength":26464,
			"byteOffset":235876,
			"target":34962
		},
		{
			"buffer":0,
			"byteLength":4968,
			"byteOffset":262340,
			"target":34963
		},
		{
			"buffer":0,
			"byteLength":2112,
			"byteOffset":267308,
			"target":34962
		},
		{
			"buffer":0,
			"byteLength":1408,
			"byteOffset":269420,
			"target":34962
		},
		{
			"buffer":0,
			"byteLength":2112,
			"byteOffset":270828,
			"target":34962
		},
		{
			"buffer":0,
			"byteLength":704,
			"byteOffset":272940,
			"target":34962
		},
		{
			"buffer":0,
			"byteLength":2816,
			"byteOffset":273644,
			"target":34962
		},
		{
			"buffer":0,
			"byteLength":528,
			"byteOffset":276460,
			"target":34963
		},
		{
			"buffer":0,
			"byteLength":2880,
			"byteOffset":276988,
			"target":34962
		},
		{
			"buffer":0,
			"byteLength":1920,
			"byteOffset":279868,
			"target":34962
		},
		{
			"buffer":0,
			"byteLength":2880,
			"byteOffset":281788,
			"target":34962
		},
		{
			"buffer":0,
			"byteLength":960,
			"byteOffset":284668,
			"target":34962
		},
		{
			"buffer":0,
			"byteLength":3840,
			"byteOffset":285628,
			"target":34962
		},
		{
			"buffer":0,
			"byteLength":720,
			"byteOffset":289468,
			"target":34963
		},
		{
			"buffer":0,
			"byteLength":864,
			"byteOffset":290188,
			"target":34962
		},
		{
			"buffer":0,
			"byteLength":576,
			"byteOffset":291052,
			"target":34962
		},
		{
			"buffer":0,
			"byteLength":864,
			"byteOffset":291628,
			"target":34962
		},
		{
			"buffer":0,
			"byteLength":288,
			"byteOffset":292492,
			"target":34962
		},
		{
			"buffer":0,
			"byteLength":1152,
			"byteOffset":292780,
			"target":34962
		},
		{
			"buffer":0,
			"byteLength":216,
			"byteOffset":293932,
			"target":34963
		},
		{
			"buffer":0,
			"byteLength":6552,
			"byteOffset":294148,
			"target":34962
		},
		{
			"buffer":0,
			"byteLength":4368,
			"byteOffset":300700,
			"target":34962
		},
		{
			"buffer":0,
			"byteLength":6552,
			"byteOffset":305068,
			"target":34962
		},
		{
			"buffer":0,
			"byteLength":2184,
			"byteOffset":311620,
			"target":34962
		},
		{
			"buffer":0,
			"byteLength":8736,
			"byteOffset":313804,
			"target":34962
		},
		{
			"buffer":0,
			"byteLength":1920,
			"byteOffset":322540,
			"target":34963
		},
		{
			"buffer":0,
			"byteLength":64,
			"byteOffset":324460
		}
	],
	"buffers":[
		{
			"byteLength":324524,
			"uri":"data:application/octet-stream;base64,"
		}
	]
}
